<svg xmlns="http://www.w3.org/2000/svg" width="112.4" height="45.2" viewBox="0 0 112.4 45.2"><style type="text/css">.st0{fill:#FFFFFF;}</style><path class="st0" d="M4 .5c3.1 0 6 2.1 6 5.2s-2.9 5.2-6 5.2h-.5v4.1h-3.5v-14.5h4zm-.5 3.2v3.9h.5c1.2 0 2.5-.7 2.5-1.9s-1.3-1.9-2.5-1.9h-.5v-.1zM17.9 0c3.9 0 6.4 3.8 6.4 7.7s-2.5 7.7-6.4 7.7-6.4-3.8-6.4-7.7 2.5-7.7 6.4-7.7zm-2.9 7.7c0 2.4.8 4.5 2.9 4.5s2.9-2.1 2.9-4.5-.8-4.5-2.9-4.5c-2.1 0-2.9 2.1-2.9 4.5zM36.1.5l1.8 8.8 2.3-9.3 3.3.6-4.1 14.2h-3.2l-1.8-8.1-1.8 8.1h-3.2l-4.1-14.2 3.4-.6 2.3 9.3 1.8-8.8h3.3zM48.6 11.7h5.2v3.2h-8.6v-14.4h8.4v3.2h-4.9v2h4.2v3.2h-4.2l-.1 2.8zM62.9 9.2l3.9 4.6-3 1.5-4.1-5.2h-.5v4.8h-3.5v-14.4h4c2.9 0 5.7 1.9 5.7 4.8 0 1.6-.9 3.1-2.5 3.9zm-3.8-2.3h.6c1.1 0 2.2-.6 2.2-1.6 0-1.1-.6-1.6-2.2-1.6h-.6v3.2zM4 27.7c3.1 0 6 2.1 6 5.2s-2.9 5.2-6 5.2h-.5v4.1h-3.5v-14.5h4zm-.5 3.2v3.9h.5c1.2 0 2.5-.7 2.5-1.9s-1.3-1.9-2.5-1.9l-.5-.1zM19.3 36.4l3.9 4.6-3 1.5-4.2-5.2h-.5v4.8h-3.5v-14.4h4c2.9 0 5.7 1.9 5.7 4.8 0 1.6-.8 3.1-2.4 3.9zm-3.8-2.3h.6c1.1 0 2.2-.6 2.2-1.6 0-1.1-.6-1.6-2.2-1.6h-.6v3.2zM30.2 27.2c3.9 0 6.4 3.8 6.4 7.7s-2.5 7.7-6.4 7.7-6.4-3.8-6.4-7.7c0-3.9 2.5-7.7 6.4-7.7zm-2.9 7.7c0 2.4.8 4.5 2.9 4.5s2.9-2.1 2.9-4.5-.8-4.5-2.9-4.5c-2.1 0-2.9 2.1-2.9 4.5zM39.3 27.7h3.5v12.4c0 2.2-.7 3.7-2.3 5.1l-3-1.6c1.2-.9 1.8-2 1.8-3.6v-12.3zM49.4 38.9h5.2v3.2h-8.6v-14.4h8.4v3.2h-4.9v2h4.2v3.2h-4.2l-.1 2.8zM62.1 27.2c2.1 0 3.6.6 5 2.2l-2.1 2.2c-.8-.9-1.7-1.3-3-1.2-2.1.2-2.8 2.4-2.8 4.5s.7 4.4 2.8 4.5c1.3.1 2.3-.4 3-1.4l2.1 2.4c-1.4 1.6-2.9 2.2-5 2.2-3.9 0-6.3-3.8-6.3-7.7.1-3.9 2.7-7.7 6.3-7.7zM74.8 42.1h-3.5v-11.2h-3.6v-3.2h10.7v3.2h-3.6v11.2zM83.6 27.7v14.4h-3.5v-14.4h3.5zM92.3 27.2c3.9 0 6.4 3.8 6.4 7.7s-2.5 7.7-6.4 7.7-6.4-3.8-6.4-7.7 2.5-7.7 6.4-7.7zm-2.9 7.7c0 2.4.8 4.5 2.9 4.5s2.9-2.1 2.9-4.5-.8-4.5-2.9-4.5c-2.1 0-2.9 2.1-2.9 4.5zM108.9 42.1l-4.9-8.2v8.2h-3.5v-14.4h3.5l4.9 8.2v-8.2h3.5v14.4h-3.5z"/></svg>