<svg xmlns="http://www.w3.org/2000/svg" width="80.4" height="43" viewBox="0 0 80.4 43"><style type="text/css">.st0{fill:#FCFCFC;}</style><path class="st0" d="M6.3 0c2.1 0 3.6.6 5 2.2l-2.1 2.2c-.8-1-1.7-1.4-2.9-1.2-2.1.2-2.8 2.4-2.8 4.5s.7 4.4 2.8 4.5c1.3.1 2.3-.4 3-1.4l2.1 2.4c-1.4 1.6-2.9 2.2-5 2.2-4 0-6.4-3.9-6.4-7.7 0-3.9 2.6-7.7 6.3-7.7zM20.1 9.4v5.4h-3.5v-5.4l-4.8-8.3 3.4-1.1 3.1 6.2 3.2-6.2 3.4 1.1-4.8 8.3zM33.4 7.2c1.8.5 2.8 1.8 2.8 3.5 0 2.7-2.5 4.2-5.6 4.2h-4.3v-14.4h4.1c2.8 0 5.3 1.1 5.3 3.6-.2 1.4-.9 2.5-2.3 3.1zm-3.2-1.2c1.2 0 1.9-.4 1.9-1.3 0-.7-.6-1.1-1.9-1.1h-.6v2.4h.6zm.2 5.8c1.6 0 2.3-.5 2.3-1.4 0-1.1-.7-1.4-2.3-1.4h-.7v2.9h.7v-.1zM41.3 11.7h5.2v3.2h-8.6v-14.4h8.4v3.2h-4.9v2h4.2v3.2h-4.2v2.8h-.1zM55.6 9.2l3.9 4.6-3 1.5-4.1-5.2h-.5v4.8h-3.5v-14.4h4c2.9 0 5.7 1.9 5.7 4.8 0 1.6-.9 3.1-2.5 3.9zm-3.8-2.3h.6c1.1 0 2.2-.6 2.2-1.6 0-1.1-.6-1.6-2.2-1.6h-.6v3.2zM5.5 28.1c3.8 0 6.7 3.1 6.9 7 .1 3.9-2.9 7.4-6.9 7.4h-4.9v-14.4h4.9zm-1.4 3.3v8h1.4c2.1 0 3.4-2.1 3.4-4.2-.1-2-1.4-3.7-3.4-3.7h-1.4v-.1zM17.6 39.3h5.2v3.2h-8.6v-14.4h8.4v3.2h-4.9v2h4.2v3.2h-4.2l-.1 2.8zM28.2 42.5h-3.5v-14.4h7.9v3.2h-4.4v2.3h4.2v3.2h-4.2v5.7zM38 39.3h5.2v3.2h-8.6v-14.4h8.4v3.2h-5v2h4.2v3.2h-4.2v2.8zM53.5 42.5l-4.9-8.2v8.2h-3.5v-14.4h3.5l4.9 8.2v-8.2h3.5v14.4h-3.5zM65.2 27.7c2.1 0 3.6.6 5 2.2l-2.1 2.1c-.8-.9-1.7-1.3-3-1.2-2.1.2-2.8 2.4-2.8 4.5s.7 4.4 2.8 4.5c1.3.1 2.3-.4 3-1.4l2.1 2.4c-1.4 1.6-2.9 2.2-5 2.2-3.9 0-6.3-3.8-6.3-7.7 0-3.8 2.6-7.6 6.3-7.6zM75.3 39.3h5.2v3.2h-8.6v-14.4h8.4v3.2h-4.9v2h4.2v3.2h-4.2l-.1 2.8z"/></svg>