<svg xmlns="http://www.w3.org/2000/svg" width="178.6" height="42.1" viewBox="0 0 178.6 42.1"><style type="text/css">.st0{fill:#FFFFFF;}</style><path class="st0" d="M9 14.9l-4.9-8.2v8.2h-3.5v-14.4h3.5l4.9 8.1v-8.1h3.5v14.4h-3.5zM18.5 11.7h5.2v3.2h-8.6v-14.4h8.4v3.2h-4.9v2h4.2v3.2h-4.2l-.1 2.8zM31.6 14.9h-3.5v-11.2h-3.6v-3.2h10.7v3.2h-3.6v11.2zM46.5.5l1.8 8.8 2.4-9.3 3.3.6-4 14.3h-3.2l-1.8-8.1-1.8 8.1h-3.2l-4.2-14.3 3.3-.6 2.3 9.3 1.8-8.8h3.3zM61.4 0c3.9 0 6.4 3.8 6.4 7.7s-2.5 7.7-6.4 7.7-6.4-3.8-6.4-7.7c.1-3.9 2.6-7.7 6.4-7.7zm-2.8 7.7c0 2.4.8 4.5 2.9 4.5 2.1 0 2.9-2.1 2.9-4.5s-.8-4.5-2.9-4.5c-2.1 0-2.9 2.1-2.9 4.5zM76.9 9.2l3.9 4.6-3 1.5-4.1-5.2h-.5v4.8h-3.5v-14.4h4c2.9 0 5.7 1.9 5.7 4.8-.1 1.6-.9 3.1-2.5 3.9zm-3.8-2.3h.6c1.1 0 2.2-.6 2.2-1.6 0-1.1-.6-1.6-2.2-1.6h-.6v3.2zM85.6 14.9h-3.5v-14.4h3.5v5.9l4.8-6.3 3.2 1.5-5 5.8 5.8 6.2-3.3 1.8-5.5-6.7v6.2zM98.4 11.7h5.2v3.2h-8.6v-14.4h8.4v3.2h-4.9v2h4.2v3.2h-4.2l-.1 2.8zM110.3.5c3.8 0 6.7 3.1 6.9 7 .1 3.9-2.9 7.4-6.9 7.4h-4.8v-14.4h4.8zm-1.4 3.2v8h1.4c2.1 0 3.4-2.1 3.4-4.2-.1-2-1.4-3.7-3.4-3.7l-1.4-.1zM6.3 26.7c2.1 0 3.6.6 5 2.2l-2.1 2.2c-.8-.9-1.7-1.3-3-1.2-2.1.2-2.8 2.4-2.8 4.5s.7 4.4 2.8 4.5c1.3.1 2.3-.4 3-1.4l2.1 2.4c-1.4 1.6-2.9 2.2-5 2.2-3.9 0-6.3-3.8-6.3-7.7 0-3.9 2.6-7.7 6.3-7.7zM18.7 26.7c3.9 0 6.4 3.8 6.4 7.7s-2.5 7.7-6.4 7.7-6.4-3.8-6.4-7.7c0-3.9 2.5-7.7 6.4-7.7zm-2.9 7.7c0 2.4.8 4.5 2.9 4.5s2.9-2.1 2.9-4.5-.8-4.5-2.9-4.5c-2.1 0-2.9 2.1-2.9 4.5zM33 41.6l-2.4-9-1 9.5-3.5-.6 2.7-14.2h3.2l2.6 9.7 2.6-9.7h3.2l2.7 14.2-3.5.6-1-9.5-2.4 9h-3.2zM50.8 41.6l-2.4-9-1 9.5-3.5-.6 2.7-14.2h3.2l2.6 9.7 2.6-9.7h3.2l2.7 14.2-3.5.6-1-9.5-2.4 9h-3.2zM74.3 27.2v8.4c0 3.6-2.5 6.5-5.9 6.5s-5.9-2.9-5.9-6.5v-8.4h3.5v7c0 2.6.4 4.7 2.5 4.7s2.5-2.1 2.5-4.7v-7h3.3zM85.1 41.6l-4.9-8.2v8.2h-3.5v-14.4h3.5l4.9 8.2v-8.2h3.5v14.4h-3.5zM95 27.2v14.4h-3.5v-14.4h3.5zM103.4 26.7c2.1 0 3.6.6 5 2.2l-2.1 2.2c-.8-.9-1.7-1.3-3-1.2-2.1.2-2.8 2.4-2.8 4.5s.7 4.4 2.8 4.5c1.3.1 2.3-.4 3-1.4l2.1 2.4c-1.4 1.6-2.9 2.2-5 2.2-3.9 0-6.3-3.8-6.3-7.7.1-3.9 2.7-7.7 6.3-7.7zM112.4 42.1l-3.5-.8 5.2-14.1h2.9l5.2 14.1-3.5.8-.9-2.9h-4.6l-.8 2.9zm3.2-10.4l-1.3 4.3h2.6l-1.3-4.3zM129.6 41.6h-3.5v-11.2h-3.6v-3.2h10.7v3.2h-3.6v11.2zM138.4 27.2v14.4h-3.5v-14.4h3.5zM147 26.7c3.9 0 6.4 3.8 6.4 7.7s-2.5 7.7-6.4 7.7-6.4-3.8-6.4-7.7 2.5-7.7 6.4-7.7zm-2.9 7.7c0 2.4.8 4.5 2.9 4.5 2.1 0 2.9-2.1 2.9-4.5s-.8-4.5-2.9-4.5c-2.1 0-2.9 2.1-2.9 4.5zM163.7 41.6l-4.9-8.2v8.2h-3.5v-14.4h3.5l4.9 8.2v-8.2h3.5v14.4h-3.5zM172 34.9c-1.4-.7-2.8-1.9-2.8-4 0-2.4 2.6-4.1 4.8-4.1 1.7 0 3 .5 4.1 1.7l-1.9 2.3c-.6-.6-1.1-.9-1.9-.9-.9 0-1.7.2-1.7 1.1s.9 1.3 1.8 1.8l1.3.7c1.7.9 2.9 2.3 2.9 4.2 0 2.6-2.4 4.6-5 4.6-1.6 0-3.4-.5-4.6-2l2-2.5c.6.8 1.6 1.4 2.5 1.4.8 0 1.7-.5 1.7-1.4 0-.8-.8-1.3-1.9-1.9l-1.3-1z"/></svg>