<svg xmlns="http://www.w3.org/2000/svg" width="102.6" height="41.6" viewBox="0 0 102.6 41.6"><style type="text/css">.st0{fill:#FFFFFF;}</style><path class="st0" d="M7.1 14.4h-3.5v-11.2h-3.6v-3.2h10.7v3.2h-3.6v11.2zM15.5 8.7v5.7h-3.5v-14.4h3.5v5.5h4v-5.5h3.5v14.4h-3.5v-5.7h-4zM32.6 8.8l3.9 4.6-3 1.5-4.1-5.2h-.5v4.8h-3.5v-14.5h4c2.9 0 5.6 1.9 5.6 4.8 0 1.6-.8 3.1-2.4 4zm-3.8-2.4h.6c1.1 0 2.2-.6 2.2-1.6s-.6-1.6-2.2-1.6h-.6v3.2zM41.1 11.2h5.2v3.2h-8.6v-14.4h8.4v3.2h-4.9v2h4.2v3.2h-4.2l-.1 2.8zM50.6 14.9l-3.5-.8 5.2-14.1h2.9l5.2 14.1-3.5.8-.9-2.9h-4.6l-.8 2.9zm3.2-10.4l-1.3 4.3h2.6l-1.3-4.3zM67.7 14.4h-3.5v-11.2h-3.6v-3.2h10.7v3.2h-3.6v11.2zM5.9 26.7c3.8 0 6.7 3.1 6.9 7 .1 3.9-2.9 7.4-6.9 7.4h-4.8v-14.4h4.8zm-1.4 3.2v8h1.4c2.1 0 3.4-2.1 3.4-4.2-.1-2-1.4-3.7-3.4-3.7h-1.4v-.1zM18 37.9h5.2v3.2h-8.6v-14.4h8.4v3.2h-5v2h4.2v3.2h-4.2v2.8zM31.2 41.1h-3.5v-11.2h-3.6v-3.2h10.7v3.2h-3.6v11.2zM39.6 37.9h5.2v3.2h-8.6v-14.4h8.4v3.2h-4.9v2h4.2v3.2h-4.2l-.1 2.8zM52.3 26.2c2.1 0 3.6.6 5 2.2l-2.1 2.2c-.8-.9-1.7-1.3-3-1.2-2.1.2-2.8 2.4-2.8 4.5s.7 4.4 2.8 4.5c1.3.1 2.3-.4 3-1.4l2.1 2.4c-1.4 1.6-2.9 2.2-5 2.2-3.9 0-6.3-3.8-6.3-7.7.1-3.9 2.7-7.7 6.3-7.7zM65 41.1h-3.5v-11.2h-3.6v-3.2h10.7v3.2h-3.6v11.2zM73.8 26.7v14.4h-3.5v-14.4h3.5zM82.5 26.2c3.9 0 6.4 3.8 6.4 7.7s-2.5 7.7-6.4 7.7-6.4-3.8-6.4-7.7 2.5-7.7 6.4-7.7zm-2.9 7.7c0 2.4.8 4.5 2.9 4.5s2.9-2.1 2.9-4.5-.8-4.5-2.9-4.5c-2.1 0-2.9 2.1-2.9 4.5zM99.1 41.1l-4.9-8.2v8.2h-3.5v-14.4h3.5l4.9 8.2v-8.2h3.5v14.4h-3.5z"/></svg>