<svg xmlns="http://www.w3.org/2000/svg" width="98.3" height="42.1" viewBox="0 0 98.3 42.1"><style type="text/css">.st0{fill:#FFFFFF;}</style><path class="st0" d="M4.9.5c3.1 0 6 2.1 6 5.2s-2.9 5.2-6 5.2h-.5v4.1h-3.5v-14.5h4zm-.5 3.2v3.9h.6c1.2 0 2.5-.7 2.5-1.9s-1.4-2-2.6-2h-.5zM20.2 9.2l3.9 4.6-3 1.5-4.1-5.2h-.5v4.8h-3.5v-14.4h4c2.9 0 5.7 1.9 5.7 4.8-.1 1.6-.9 3.1-2.5 3.9zm-3.8-2.3h.6c1.1 0 2.2-.6 2.2-1.6s-.6-1.6-2.2-1.6h-.6v3.2zM28.8 11.7h5.2v3.2h-8.6v-14.4h8.4v3.2h-4.9v2h4.1v3.2h-4.2v2.8zM41.5 0c2.1 0 3.6.6 5 2.2l-2.1 2.2c-.8-.9-1.7-1.3-3-1.2-2.1.2-2.8 2.4-2.8 4.5s.7 4.4 2.8 4.5c1.3.1 2.3-.4 3-1.4l2.1 2.4c-1.4 1.6-2.9 2.2-5 2.2-3.9 0-6.3-3.8-6.3-7.7s2.7-7.7 6.3-7.7zM52 .5v14.4h-3.5v-14.4h3.5zM57.1 8.2c-1.4-.7-2.8-1.9-2.8-4 0-2.5 2.7-4.2 4.8-4.2 1.7 0 3 .5 4.1 1.7l-1.9 2.3c-.6-.6-1.1-.9-1.9-.9-.9 0-1.7.2-1.7 1.1s.9 1.3 1.8 1.8l1.3.7c1.7.9 2.9 2.3 2.9 4.2 0 2.6-2.4 4.6-5 4.6-1.6 0-3.4-.5-4.6-2l2-2.5c.6.8 1.6 1.4 2.5 1.4.8 0 1.7-.5 1.7-1.4 0-.8-.8-1.3-1.9-1.9l-1.3-.9zM69.5.5v14.4h-3.5v-14.4h3.5zM78.1 0c3.9 0 6.4 3.8 6.4 7.7s-2.5 7.7-6.4 7.7-6.4-3.8-6.4-7.7 2.6-7.7 6.4-7.7zm-2.8 7.7c0 2.4.8 4.5 2.9 4.5s2.9-2.1 2.9-4.5-.8-4.5-2.9-4.5c-2.1 0-2.9 2.1-2.9 4.5zM94.8 14.9l-4.9-8.2v8.2h-3.5v-14.4h3.5l4.9 8.2v-8.2h3.5v14.4h-3.5zM3 34.9c-1.4-.7-2.8-1.9-2.8-4 0-2.4 2.6-4.1 4.8-4.1 1.7 0 3 .5 4.1 1.7l-1.9 2.3c-.6-.6-1.1-.9-1.9-.9-.9 0-1.7.2-1.7 1.1s.9 1.3 1.8 1.8l1.3.7c1.7.9 2.9 2.3 2.9 4.2 0 2.6-2.4 4.6-5 4.6-1.6 0-3.4-.5-4.6-2l2-2.5c.6.6 1.6 1.2 2.6 1.2.8 0 1.7-.5 1.7-1.4 0-.8-.8-1.3-1.9-1.9l-1.4-.8zM17.6 41.6h-3.5v-11.2h-3.6v-3.2h10.7v3.2h-3.6v11.2zM29.8 36l3.9 4.6-3 1.5-4.1-5.2h-.6v4.8h-3.5v-14.5h4c2.9 0 5.7 1.9 5.7 4.8 0 1.6-.9 3.1-2.4 4zm-3.8-2.4h.6c1.1 0 2.2-.6 2.2-1.6s-.6-1.6-2.2-1.6h-.6v3.2zM38.7 27.2v14.4h-3.5v-14.4h3.5zM45.1 41.6h-3.5v-14.4h3.5v5.9l4.8-6.3 3.2 1.5-5 5.8 5.8 6.2-3.3 1.8-5.5-6.7v6.2zM57.9 38.4h5.1v3.2h-8.6v-14.4h8.4v3.2h-4.9v2h4.2v3.2h-4.2v2.8z"/></svg>