<svg xmlns="http://www.w3.org/2000/svg" width="137.3" height="42.7" viewBox="0 0 137.3 42.7"><style type="text/css">.st0{fill:#FFFFFF;}</style><path class="st0" d="M6.9 14.9l-2.4-9-1 9.5-3.5-.7 2.7-14.2h3.3l2.6 9.7 2.6-9.7h3.2l2.6 14.2-3.5.6-1-9.5-2.4 9-3.2.1zM22.6.5v14.4h-3.5v-14.4h3.5zM27.6 8.2c-1.4-.7-2.8-1.9-2.8-4 0-2.4 2.6-4.1 4.8-4.1 1.7 0 3 .5 4.1 1.7l-1.9 2.2c-.6-.6-1.1-.9-1.9-.9-.9 0-1.7.2-1.7 1.1s.9 1.3 1.8 1.8l1.3.7c1.7.9 2.9 2.3 2.9 4.2 0 2.6-2.4 4.6-5 4.6-1.6 0-3.4-.5-4.6-2l2-2.5c.6.8 1.6 1.4 2.5 1.4.8 0 1.7-.5 1.7-1.4 0-.8-.8-1.3-1.9-1.9l-1.3-.9zM38.5 8.2c-1.4-.7-2.8-1.9-2.8-4 0-2.4 2.6-4.1 4.8-4.1 1.7 0 3 .5 4.1 1.7l-1.9 2.2c-.6-.6-1.1-.9-1.9-.9-.9 0-1.7.2-1.7 1.1s.9 1.3 1.8 1.8l1.3.7c1.7.9 2.9 2.3 2.9 4.2 0 2.6-2.4 4.6-5 4.6-1.6 0-3.4-.5-4.6-2l2-2.5c.6.8 1.6 1.4 2.5 1.4.8 0 1.7-.5 1.7-1.4 0-.8-.8-1.3-1.9-1.9l-1.3-.9zM50.9.5v14.4h-3.5v-14.4h3.5zM59.5 0c3.9 0 6.4 3.8 6.4 7.7s-2.5 7.7-6.4 7.7-6.4-3.8-6.4-7.7c.1-3.9 2.6-7.7 6.4-7.7zm-2.8 7.7c0 2.4.8 4.5 2.9 4.5s2.9-2.1 2.9-4.5-.8-4.5-2.9-4.5-2.9 2.1-2.9 4.5zM76.2 14.9l-4.9-8.2v8.2h-3.5v-14.4h3.5l4.9 8.2v-8.2h3.5v14.4h-3.5zM6.7 27.3c3.9 0 6.4 3.8 6.4 7.7s-2.5 7.7-6.4 7.7-6.4-3.8-6.4-7.7c0-3.9 2.5-7.7 6.4-7.7zm-2.9 7.7c0 2.4.8 4.5 2.9 4.5s2.9-2.1 2.9-4.5-.8-4.5-2.9-4.5-2.9 2.1-2.9 4.5zM19.2 27.8c3.1 0 6 2.1 6 5.2s-2.9 5.2-6 5.2h-.6v4.1h-3.5v-14.5h4.1zm-.6 3.2v3.9h.6c1.2 0 2.5-.7 2.5-1.9s-1.3-1.9-2.5-1.9h-.6v-.1zM33.2 42.2h-3.5v-11.2h-3.6v-3.2h10.7v3.2h-3.6v11.2zM42.1 27.8v14.4h-3.5v-14.4h3.5zM50.9 42.2l-2.4-9-1 9.5-3.5-.7 2.7-14.2h3.3l2.6 9.7 2.6-9.7h3.2l2.7 14.2-3.5.6-1-9.5-2.4 9h-3.3v.1zM66.6 27.8v14.4h-3.5v-14.4h3.5zM71.7 35.5c-1.4-.7-2.8-1.9-2.8-4 0-2.4 2.6-4.1 4.8-4.1 1.7 0 3 .5 4.1 1.7l-1.9 2.3c-.6-.6-1.1-.9-1.9-.9-.9 0-1.7.2-1.7 1.1s.9 1.3 1.8 1.8l1.3.7c1.7.9 2.9 2.3 2.9 4.2 0 2.6-2.4 4.6-5 4.6-1.6 0-3.4-.5-4.6-2l2-2.5c.6.8 1.6 1.4 2.5 1.4.8 0 1.7-.5 1.7-1.4 0-.8-.8-1.3-1.9-1.9l-1.3-1zM82.6 42.7l-3.5-.8 5.2-14.1h2.9l5.2 14.1-3.5.8-.9-2.9h-4.6l-.8 2.9zm3.2-10.4l-1.3 4.3h2.5l-1.2-4.3zM99.7 42.2h-3.5v-11.2h-3.6v-3.2h10.7v3.2h-3.6v11.2zM108.6 27.8v14.4h-3.5v-14.4h3.5zM117.2 27.3c3.9 0 6.4 3.8 6.4 7.7s-2.5 7.7-6.4 7.7-6.4-3.8-6.4-7.7c0-3.9 2.5-7.7 6.4-7.7zm-2.9 7.7c0 2.4.8 4.5 2.9 4.5s2.9-2.1 2.9-4.5-.8-4.5-2.9-4.5c-2.1 0-2.9 2.1-2.9 4.5zM133.8 42.2l-4.9-8.2v8.2h-3.5v-14.4h3.5l4.9 8.2v-8.2h3.5v14.4h-3.5z"/></svg>