<svg xmlns="http://www.w3.org/2000/svg" width="125.3" height="41.7" viewBox="0 0 125.3 41.7"><style type="text/css">.st0{fill:#FFFFFF;}</style><path class="st0" d="M3.4 8.2c-1.4-.8-2.8-2-2.8-4.1 0-2.4 2.7-4.1 4.8-4.1 1.7 0 3 .5 4.1 1.7l-1.9 2.3c-.6-.6-1.1-.9-1.9-.9-.9 0-1.7.2-1.7 1s.9 1.3 1.8 1.8l1.3.7c1.7.9 2.9 2.3 2.9 4.2 0 2.6-2.4 4.6-5 4.6-1.6 0-3.4-.5-4.6-2l2-2.5c.6.7 1.6 1.3 2.5 1.3.8 0 1.7-.5 1.7-1.4 0-.8-.8-1.3-1.9-1.9l-1.3-.7zM15.8.5v14.4h-3.5v-14.4h3.5zM24.6 14.9h-3.5v-11.2h-3.6v-3.2h10.7v3.2h-3.6v11.2zM41.4.5v8.4c0 3.6-2.5 6.5-5.9 6.5-3.4 0-5.9-2.9-5.9-6.5v-8.4h3.4v7c0 2.6.4 4.7 2.5 4.7s2.5-2.1 2.5-4.7v-7h3.4zM46 15.4l-3.5-.8 5.2-14.1h2.9l5.2 14.1-3.5.8-.9-2.9h-4.6l-.8 2.9zm3.2-10.4l-1.3 4.3h2.6l-1.3-4.3zM63.2 14.9h-3.5v-11.2h-3.6v-3.2h10.7v3.2h-3.6v11.2zM72 .5v14.4h-3.5v-14.4h3.5zM80.6 0c3.9 0 6.4 3.8 6.4 7.7 0 3.9-2.5 7.7-6.4 7.7-3.9 0-6.4-3.8-6.4-7.7.1-3.9 2.6-7.7 6.4-7.7zm-2.8 7.7c0 2.4.8 4.5 2.9 4.5 2.1 0 2.9-2.1 2.9-4.5s-.8-4.5-2.9-4.5c-2.1 0-2.9 2.1-2.9 4.5zM97.3 14.9l-4.9-8.2v8.2h-3.5v-14.4h3.5l4.9 8.2v-8.2h3.5v14.4h-3.5zM105.7 15.4l-3.5-.8 5.2-14.1h2.9l5.2 14.1-3.5.8-.9-2.9h-4.6l-.8 2.9zm3.2-10.4l-1.3 4.3h2.6l-1.3-4.3zM120.3 11.7h5v3.2h-8.5v-14.4h3.5v11.2zM3.5 41.7l-3.5-.7 5.2-14.1h2.9l5.1 14.1-3.5.8-.9-2.9h-4.5l-.8 2.8zm3.1-10.3l-1.3 4.3h2.6l-1.3-4.3zM24.5 26.9l1.8 8.8 2.3-9.3 3.4.6-4 14.3h-3.2l-1.8-8.1-2 8.1h-3.2l-4-14.3 3.3-.6 2.3 9.3 1.8-8.8h3.3zM36 41.7l-3.5-.7 5.2-14.1h2.9l5.1 14.1-3.5.8-.9-2.9h-4.6l-.7 2.8zm3.1-10.3l-1.3 4.3h2.6l-1.3-4.3zM54.3 35.6l3.9 4.6-3 1.5-4.2-5.2h-.5v4.8h-3.5v-14.4h4c2.9 0 5.7 1.9 5.7 4.8 0 1.6-.9 3.1-2.4 3.9zm-3.8-2.3h.5c1.1 0 2.2-.6 2.2-1.6 0-1.1-.6-1.6-2.2-1.6h-.6v3.2zM62.8 38h5.2v3.2h-8.6v-14.3h8.4v3.2h-4.9v2h4.1v3.2h-4.2v2.7zM78.3 41.3l-4.9-8.2v8.2h-3.5v-14.4h3.5l4.9 8.2v-8.2h3.5v14.4h-3.5zM87.8 38h5.2v3.2h-8.6v-14.3h8.4v3.2h-4.9v2h4.1v3.2h-4.2v2.7zM97.2 34.5c-1.4-.7-2.8-1.9-2.8-4 0-2.4 2.6-4.1 4.8-4.1 1.7 0 3 .5 4.1 1.7l-1.9 2.3c-.6-.6-1.1-.9-1.9-.9-.9 0-1.7.2-1.7 1.1 0 .8.9 1.3 1.8 1.8l1.3.7c1.7.9 2.9 2.3 2.9 4.2 0 2.6-2.4 4.6-5 4.6-1.6 0-3.4-.5-4.6-2l2-2.5c.6.8 1.6 1.4 2.5 1.4.8 0 1.7-.5 1.7-1.4 0-.8-.8-1.3-1.9-1.9l-1.3-1zM108.1 34.5c-1.4-.7-2.8-1.9-2.8-4 0-2.4 2.6-4.1 4.8-4.1 1.7 0 3 .5 4.1 1.7l-1.9 2.3c-.6-.6-1.1-.9-1.9-.9-.9 0-1.7.2-1.7 1.1 0 .8.9 1.3 1.8 1.8l1.3.7c1.7.9 2.9 2.3 2.9 4.2 0 2.6-2.4 4.6-5 4.6-1.6 0-3.4-.5-4.6-2l2-2.5c.6.8 1.6 1.4 2.5 1.4.8 0 1.7-.5 1.7-1.4 0-.8-.8-1.3-1.9-1.9l-1.3-1z"/></svg>