<svg xmlns="http://www.w3.org/2000/svg" width="129.1" height="12.4" viewBox="0 0 129.1 12.4"><style type="text/css">.st0{fill:#FFFFFF;}</style><path class="st0" d="M2.2 12.1h-2.2v-11.2h5.6v2.2h-3.4v2.2h3.2v2.2h-3.2v4.6zM9.7.9v11.2h-2.2v-11.2h2.2zM18.5 12.1l-4.3-7.4v7.4h-2.2v-11.2h2.2l4.3 7.4v-7.4h2.2v11.2h-2.2zM26.4.9c2.9 0 5 2.5 5.1 5.4.1 3-2.1 5.8-5.1 5.8h-3.5v-11.2h3.5zm-1.3 2.2v6.8h1.3c1.8 0 2.9-1.8 2.9-3.6-.1-1.7-1.2-3.2-2.9-3.2h-1.3zM41.7.6c3 0 4.7 2.9 4.7 5.9 0 3-1.8 5.9-4.7 5.9-3 0-4.7-2.9-4.7-5.9 0-3 1.8-5.9 4.7-5.9zm-2.4 5.9c0 1.9.7 3.7 2.5 3.7s2.5-1.9 2.5-3.7c0-1.9-.7-3.7-2.5-3.7s-2.5 1.8-2.5 3.7zM56.7.9v6.5c0 2.8-1.8 5-4.4 5s-4.4-2.2-4.4-5v-6.5h2.2v5.7c0 2 .5 3.6 2.2 3.6 1.6 0 2.2-1.5 2.2-3.6v-5.7h2.2zM62.8 12.1h-2.2v-9h-2.8v-2.2h7.8v2.2h-2.8v9zM75.8 12.1l-2.2-7.5-1 7.7-2.2-.3 2.1-11.1h2l2.2 8.1 2.3-8.1h2l2.2 11.1-2.2.3-1-7.7-2.2 7.5h-2zM88.5.6c3 0 4.7 2.9 4.7 5.9 0 3-1.8 5.9-4.7 5.9s-4.7-2.9-4.7-5.9c-.1-3 1.7-5.9 4.7-5.9zm-2.5 5.9c0 1.9.7 3.7 2.5 3.7 1.7 0 2.5-1.9 2.5-3.7 0-1.9-.7-3.7-2.5-3.7s-2.5 1.8-2.5 3.7zM97 8.2v3.9h-2.2v-11.2h2.9c2.2 0 4.2 1.5 4.2 3.7 0 1.3-.7 2.6-2.1 3.2l3 3.6-1.9 1.1-3.3-4.1h-.6zm0-2.2h.7c.9 0 1.9-.5 1.9-1.5s-.7-1.5-1.9-1.5h-.7v3zM106 9.9h3.9v2.2h-6.1v-11.2h5.9v2.2h-3.7v2h3.2v2.2h-3.2v2.6zM119.9 0v12.3l9.2-6.1z"/></svg>