<svg xmlns="http://www.w3.org/2000/svg" width="227.9" height="51.3" viewBox="0 0 227.9 51.3"><style type="text/css">.st0{fill:#FFFFFF;} .st1{fill:#2C2B6C;} .st2{fill:#00BBDD;}</style><path class="st0" d="M227.9 19.8c0 3.7-1.1 4.7-4 5.6-3.2 1-8.8 1.6-12.1 1.6-4 0-8.9-.3-13.1-1.2v-4.2h23.2v-5.8h-16.4c-4.9 0-6.8-1.4-6.8-6.2v-2.5c0-3.8 1.1-4.9 4.2-5.7 3.1-.9 8.2-1.4 11.5-1.4 4 0 8.9.3 13.1 1.2v4.2h-22.8v4.9h16.4c4.9 0 6.8 1.3 6.8 6.2v3.3m-39.6 6c-4.8 1-9.7 1.2-14.3 1.2s-9.6-.3-14.4-1.2v-24.6c4.8-1 9.7-1.2 14.4-1.2s9.5.3 14.3 1.2v4.4h-21.7v4.9h14.2v5.1h-14.2v5.8h21.9v4.4m-37.3 0c-4.3 1-8.7 1.2-12.9 1.2s-8.6-.3-12.9-1.2v-25.2h6.9v20.5h18.9v4.7m-34.1.1c-2.3.7-5.4.9-7.6.9l-10.7-21.5h-.6l-10.7 21.6c-2.3 0-5-.3-7.3-.9l13.6-25.4h9.6l13.7 25.3"/><path class="st1" d="M103 19.5c0 2.5-2 4.5-4.5 4.5s-4.5-2-4.5-4.5 2-4.5 4.5-4.5 4.5 2 4.5 4.5"/><path class="st0" d="M71.9 26c-2.2.6-4.6.9-6.9.9v-11h-17.2v11c-2.4 0-4.7-.3-6.9-.9v-24.9c2.2-.6 4.6-.9 6.9-.9v10.6h17.2v-10.6c2.4 0 4.7.3 6.9.9v24.9m-40.7-20.3h-12.2v20.7h-6.9v-20.7h-12.1v-4.4c5.2-1 10.5-1.3 15.6-1.3s10.3.3 15.6 1.2v4.5m196.7 14.1c0 3.7-1.1 4.7-4 5.6-3.2 1-8.8 1.6-12.1 1.6-4 0-8.9-.3-13.1-1.2v-4.2h23.2v-5.8h-16.4c-4.9 0-6.8-1.4-6.8-6.2v-2.5c0-3.8 1.1-4.9 4.2-5.7 3.1-.9 8.2-1.4 11.5-1.4 4 0 8.9.3 13.1 1.2v4.2h-22.8v4.9h16.4c4.9 0 6.8 1.3 6.8 6.2v3.3m-39.6 6c-4.8 1-9.7 1.2-14.3 1.2s-9.6-.3-14.4-1.2v-24.6c4.8-1 9.7-1.2 14.4-1.2s9.5.3 14.3 1.2v4.4h-21.7v4.9h14.2v5.1h-14.2v5.8h21.9v4.4m-37.3 0c-4.3 1-8.7 1.2-12.9 1.2s-8.6-.3-12.9-1.2v-25.2h6.9v20.5h18.9v4.7m-34.1.1c-2.3.7-5.4.9-7.6.9l-10.7-21.5h-.6l-10.7 21.6c-2.3 0-5-.3-7.3-.9l13.6-25.4h9.6l13.7 25.3"/><path class="st2" d="M103 19.5c0 2.5-2 4.5-4.5 4.5s-4.5-2-4.5-4.5 2-4.5 4.5-4.5 4.5 2 4.5 4.5"/><path class="st0" d="M71.9 26c-2.2.6-4.6.9-6.9.9v-11h-17.2v11c-2.4 0-4.7-.3-6.9-.9v-24.9c2.2-.6 4.6-.9 6.9-.9v10.6h17.2v-10.6c2.4 0 4.7.3 6.9.9v24.9m-40.7-20.3h-12.2v20.7h-6.9v-20.7h-12.1v-4.4c5.2-1 10.5-1.3 15.6-1.3s10.3.3 15.6 1.2v4.5"/><path class="st0" d="M82.9 43.3c0 .7-.2 1.2-.7 1.7s-1 .7-1.7.7-1.2-.2-1.7-.7c-.4-.5-.7-1-.7-1.7s.2-1.2.7-1.7c.4-.4 1-.7 1.7-.7s1.2.2 1.7.7.7 1.1.7 1.7zm47.6 0c0 .7-.2 1.2-.7 1.7s-1 .7-1.7.7-1.2-.2-1.7-.7c-.4-.5-.7-1-.7-1.7s.2-1.2.7-1.7c.4-.4 1-.7 1.7-.7s1.2.2 1.7.7.7 1.1.7 1.7zm-108.6 5c0 .1 0 .1-.1.1h-1.8c-.1 0-.1 0-.1-.1v-8.1c0-.1 0-.1-.1-.1h-2.3c-.1 0-.1 0-.1-.1v-1.6c0-.1 0-.1.1-.1h7c.1 0 .1 0 .1.1v1.6c0 .1 0 .1-.1.1h-2.5c-.1 0-.1 0-.1.1v8.1zm9.8-2.8c0 .6-.1 1-.2 1.4s-.3.7-.5.9-.5.4-.8.5-.7.1-1.1.1h-2.6c-.4 0-.8-.1-1.1-.2-.3-.2-.5-.4-.7-.6-.2-.3-.3-.5-.4-.9-.1-.3-.1-.6-.1-1v-2.5c0-.3.1-.7.2-.9.1-.3.3-.5.5-.7s.4-.3.7-.5c.4-.1.7-.1 1-.1h2.9c.3 0 .5 0 .8.1s.5.2.7.4.4.4.5.7.2.6.2.9v2.4zm-1.8-2.1c0-.1 0-.2-.1-.3s-.2-.2-.3-.2c-.1-.1-.2-.1-.4-.1h-2.4l-.3.1-.3.2c-.1.1-.1.2-.1.3v2.3c0 .2 0 .3.1.5l.3.3c.1.1.3.1.4.1h1.7c.3 0 .6-.1.9-.2.3-.2.4-.4.4-.6l.1-2.4zm3.5 6.3h3.9c.1 0 .2 0 .3-.1l.2-.2.1-.3v-.7h-2.1c-.4 0-.7-.1-1.1-.2-.4-.2-.7-.4-1-.7s-.5-.7-.7-1.1c-.2-.4-.3-.9-.3-1.5v-.9c0-.4.1-.8.2-1.1.1-.4.3-.7.5-1s.5-.5.9-.7c.3-.2.7-.2 1.2-.2h3.3c.2 0 .4.1.6.2.1.1.2.3.2.5v7.7c0 .2-.1.4-.2.7-.1.2-.2.4-.4.6-.2.2-.4.4-.6.5-.2.1-.5.2-.7.2h-4.3c-.1 0-.1 0-.1-.1v-1.3c0-.2.1-.3.1-.3zm1.2-4.1c.1.2.2.4.4.6.2.2.4.3.7.4.3.1.7.1 1.1.1h.9c.1 0 .1 0 .1-.1v-3.7c0-.1 0-.1-.1-.1h-1.9c-.5 0-.8.1-1 .4-.2.3-.3.7-.3 1.2v.4c0 .3 0 .6.1.8zm7.6.1c0 .1 0 .3.1.4l.3.3c.1.1.3.2.5.2.2.1.4.1.6.1h3.4c.1 0 .1 0 .1.1v1.5c0 .1 0 .1-.1.1h-2.4c-.8 0-1.5-.1-2-.2s-1-.3-1.3-.6-.6-.7-.7-1.1c-.1-.4-.2-1-.2-1.6 0-.8.1-1.4.4-1.9.2-.5.5-.9.9-1.2s.8-.5 1.3-.6.9-.2 1.4-.2c.6 0 1.1.1 1.5.2.4.1.8.3 1.1.6s.5.6.6.9c.1.4.2.8.2 1.2v1.5c0 .1 0 .1-.1.1h-5.3c-.2 0-.3.1-.3.2zm3.8-1.8c.1-.5-.1-.8-.4-1s-.8-.3-1.4-.3c-.2 0-.4 0-.6.1l-.7.2c-.2.1-.4.2-.5.4-.1.1-.2.3-.2.5 0 .1 0 .1.1.1h3.7zm5.3 2.6l1.3.1c.1 0 .1.1.1.1v1.5c0 .1 0 .1-.1.1h-1.8c-.4 0-.7-.1-.9-.3s-.4-.5-.4-.8v-4.5c0-.1 0-.1-.1-.1h-.8c-.1 0-.1 0-.1-.1v-1.5c0-.1 0-.1.1-.1h.8c.1 0 .1 0 .1-.1v-1.8c0-.1 0-.1.1-.1h1.5c.1 0 .1 0 .1.1v1.8c0 .1 0 .1.1.1h1.2c.1 0 .1 0 .1.1v1.5c0 .1 0 .1-.1.1h-1.2c-.1 0-.1 0-.1.1v3.8h.1zm6.8-3.5c-.3-.2-.7-.3-1.2-.3h-.5c-.2 0-.3 0-.4.1-.1 0-.2.1-.3.2-.1.1-.1.2-.1.3v5c0 .1 0 .1-.1.1h-1.5c-.1 0-.1 0-.1-.1v-10c0-.1 0-.1.1-.1h1.5c.1 0 .1 0 .1.1v2.7h2.4c.3 0 .6.1.9.2.3.1.5.3.7.5s.4.4.5.7.2.5.2.8v5.2c0 .1 0 .1-.1.1h-1.5c-.1 0-.1 0-.1-.1v-4.4c0-.5-.2-.8-.5-1zm4.7 2.7c0 .1 0 .3.1.4l.3.3c.1.1.3.2.5.2.2.1.4.1.6.1h3.4c.1 0 .1 0 .1.1v1.5c0 .1 0 .1-.1.1h-2.4c-.8 0-1.5-.1-2-.2s-1-.3-1.3-.6-.6-.7-.7-1.1c-.1-.4-.2-1-.2-1.6 0-.8.1-1.4.4-1.9.2-.5.5-.9.9-1.2s.8-.5 1.3-.6c.3-.2.8-.2 1.3-.2.6 0 1.1.1 1.5.2.4.1.8.3 1.1.6.3.3.5.6.6.9.1.4.2.8.2 1.2v1.5c0 .1 0 .1-.1.1h-5.3c-.2 0-.2.1-.2.2zm3.8-1.8c.1-.5-.1-.8-.4-1s-.8-.3-1.4-.3c-.2 0-.4 0-.6.1l-.7.2c-.2.1-.4.2-.5.4-.1.1-.2.3-.2.5 0 .1 0 .1.1.1h3.7zm6.6-2.9l.1 1.6c0 .1 0 .1-.1.1h-1.4c-.1 0-.2 0-.2.1-.1 0-.1.1-.2.2s-.1.1-.1.2v5.2c0 .1 0 .1-.1.1h-1.6c-.1 0-.1 0-.1-.1v-5.5c0-.2.1-.5.2-.7s.2-.4.4-.6c.2-.2.4-.3.6-.4.1-.2.3-.2.6-.2h1.9zm17.4 3.2c-.3 0-.6 0-1-.1-.3-.1-.6-.2-.9-.4-.2-.1-.3-.3-.4-.5l-.3-.6c-.1-.2-.1-.4-.2-.7 0-.2-.1-.4-.1-.7v-.6c.1-.8.4-1.5.9-1.9l.6-.4c.2-.1.5-.2.7-.2h4.8c.1 0 .1 0 .1.1v1.6c0 .1 0 .1-.1.1h-4.1c-.1 0-.3.1-.4.2-.1.1-.2.2-.2.3l-.1.3v.8c0 .2.1.3.2.4.1.1.3.2.4.2h2.2c.3 0 .6 0 .9.1s.6.2.9.5c.2.1.3.3.4.5l.3.6.2.7v1.2c-.1.9-.4 1.5-.9 2l-.6.4c-.2.1-.5.2-.7.2h-5.2c-.1 0-.1 0-.1-.1v-1.6c0-.1 0-.1.1-.1h4.6c.1 0 .3-.1.4-.2.1-.1.2-.3.2-.4l.1-.3v-.8c0-.2-.1-.3-.2-.5-.1-.1-.2-.2-.4-.2l-.6-.1h-1.5v.2zm6.4-3.2h4c.4 0 .7.1.9.2.3.2.5.4.6.6.2.2.3.5.3.8.1.3.1.6.1.9v4.7c0 .1 0 .1-.1.1h-5c-.3 0-.5-.1-.7-.3s-.3-.4-.4-.6c-.1-.2-.2-.5-.2-.7s-.1-.4-.1-.5c0-.2 0-.5.1-.8s.1-.5.3-.8c.1-.2.3-.4.5-.6.2-.2.4-.2.7-.2h2.4c.2 0 .4-.1.6-.2.1-.1.2-.3.2-.4 0-.1 0-.3-.1-.4-.1-.1-.2-.2-.4-.2h-3.7c-.1 0-.1 0-.1-.1l.1-1.5zm4.2 5.8l.1-1c0-.1 0-.1-.1-.1h-2.6c-.1 0-.2.1-.3.2-.1.1-.1.2-.1.4s0 .3.1.4c.1.1.2.2.4.2h2.5v-.1zm5.5-6l1.3.1c.1 0 .1 0 .1.1v1.5c0 .1 0 .1-.1.1h-1.2c-.1 0-.1 0-.1.1v5.4c0 .1 0 .1-.1.1h-1.5c-.1 0-.1 0-.1-.1v-5.4c0-.1 0-.1-.1-.1h-.9c-.1 0-.1 0-.1-.1v-1.5c0-.1 0-.1.1-.1h.8c.1 0 .1 0 .1-.1v-.9c0-.2.1-.4.2-.6.1-.2.2-.4.4-.6.2-.2.3-.3.5-.4.2-.1.4-.2.6-.2h2.1c.1 0 .1 0 .1.1v1.5c0 .1 0 .1-.1.1h-1.4s-.1 0-.2.1c-.1 0-.1.1-.2.2l-.2.2-.1.2.1.3zm3.7 4.9c0 .1 0 .3.1.4l.3.3c.1.1.3.2.5.2.2.1.4.1.6.1h3.4c.1 0 .1 0 .1.1v1.5c0 .1 0 .1-.1.1h-2.4c-.8 0-1.5-.1-2-.2s-1-.3-1.3-.6-.6-.7-.7-1.1c-.1-.4-.2-1-.2-1.6 0-.8.1-1.4.4-1.9.2-.5.5-.9.9-1.2s.8-.5 1.3-.6.9-.2 1.4-.2c.6 0 1.1.1 1.5.2.4.1.8.3 1.1.6.3.3.5.6.6.9.1.4.2.8.2 1.2v1.5c0 .1 0 .1-.1.1h-5.3c-.3 0-.3.1-.3.2zm3.8-1.8c.1-.5-.1-.8-.4-1s-.8-.3-1.4-.3c-.2 0-.4 0-.6.1l-.7.2c-.2.1-.4.2-.5.4-.1.1-.2.3-.2.5 0 .1 0 .1.1.1h3.7zm6.6-2.9l.1 1.6c0 .1 0 .1-.1.1h-1.4c-.1 0-.2 0-.2.1-.1 0-.1.1-.2.2s-.1.1-.1.2v5.2c0 .1 0 .1-.1.1h-1.6c-.1 0-.1 0-.1-.1v-5.5c0-.2.1-.5.2-.7s.2-.4.4-.6c.2-.2.4-.3.6-.4.2-.1.5-.2.7-.2h1.8zm14.6-.7c0-.7.2-1.2.5-1.6.4-.4.9-.6 1.5-.6h4.9c.1 0 .2 0 .2.1v1.6c0 .1 0 .1-.1.1h-4.8c-.1 0-.1.1-.1.2v2c0 .1 0 .1.1.1h4.4c.1 0 .1 0 .1.1v1.7c0 .1 0 .1-.1.1h-4.4c-.1 0-.1 0-.1.1v2.1c0 .1 0 .1.1.1h4.8c.1 0 .1 0 .1.1v1.6c0 .1 0 .1-.1.1h-5.6c-.2 0-.3 0-.5-.1s-.3-.2-.5-.4c-.1-.1-.2-.3-.3-.5s-.1-.4-.1-.5v-6.4zm13 7.4c-.2.5-.6.8-1.3.8-.6 0-1.1-.3-1.3-.8l-2.5-6.7s0-.1.1-.1h1.8s0 .1.1.1l1.7 4.6s0 .1.1.2c0 .1.1.1.1.1s.1 0 .1-.1l.1-.2 1.7-4.6c0-.1 0-.1.1-.1h1.8s.1 0 .1.1l-2.7 6.7zm4.1-2c0 .1 0 .3.1.4l.3.3c.1.1.3.2.5.2.2.1.4.1.6.1h3.4c.1 0 .1 0 .1.1v1.5c0 .1 0 .1-.1.1h-2.4c-.8 0-1.5-.1-2-.2s-1-.3-1.3-.6-.6-.7-.7-1.1c-.1-.4-.2-1-.2-1.6 0-.8.1-1.4.4-1.9.2-.5.5-.9.9-1.2s.8-.5 1.3-.6.9-.2 1.4-.2c.6 0 1.1.1 1.5.2.4.1.8.3 1.1.6s.5.6.6.9c.1.4.2.8.2 1.2v1.5c0 .1 0 .1-.1.1h-5.3c-.2 0-.3.1-.3.2zm3.9-1.8c.1 0 .1 0 .1-.1 0-.4-.2-.7-.5-.9s-.8-.3-1.4-.3c-.2 0-.4 0-.6.1l-.7.2c-.2.1-.4.2-.5.4-.1.1-.2.3-.2.5 0 .1 0 .1.1.1h3.7zm6.6-2.9c.1 0 .1 0 .1.1v1.5c0 .1 0 .1-.1.1h-1.4c-.1 0-.2 0-.2.1-.1 0-.1.1-.2.2s-.1.1-.1.2v5.2c0 .1 0 .1-.1.1h-1.6c-.1 0-.1 0-.1-.1v-5.5c0-.2.1-.5.2-.7.1-.2.2-.4.4-.6.2-.2.4-.3.6-.4.2-.1.5-.2.7-.2h1.8zm2.5 10.2l-.1-.1 1-2.7h-.3l-.3-.1c-.1-.1-.2-.2-.2-.3l-2.3-6.8v-.1c0-.1 0-.1.1-.1h1.7c.1 0 .1 0 .2.1l1.5 4.8v.1c0 .1 0 .1.1.2l.1.2c0 .1.1.1.1.1s.1 0 .1-.1c0 0 .1-.1.1-.2l.1-.2v-.1l1.8-4.8c0-.1.1-.1.2-.1h1.7c.1 0 .1 0 .1.1v.1l-3.8 10c0 .1-.1.1-.2.1h-1.7v-.1zm15.7-4c0 .3-.1.5-.2.7-.1.2-.2.3-.3.4-.1.1-.3.2-.4.2-.2 0-.4.1-.7.1h-.9c-.2 0-.4-.1-.5-.2-.2-.1-.3-.2-.4-.4-.1-.2-.2-.4-.2-.7l-.4-4.1s0-.1-.1-.1h-.2s-.1 0-.1.1l-.4 4.1c0 .3-.1.5-.2.7-.1.2-.3.3-.4.4l-.5.2h-.9c-.3 0-.5 0-.7-.1-.2 0-.3-.1-.4-.2l-.3-.4c-.1-.2-.1-.4-.2-.7l-.9-6.1c0-.1.1-.1.2-.1h1.5v.1l.7 4.9c0 .1 0 .1.1.1h.2l.1-.1.4-3.9c0-.3.1-.5.2-.6.1-.2.2-.3.4-.4.1-.1.3-.1.5-.2h1.6c.2 0 .4.1.5.2.1.1.3.2.4.4.1.2.2.4.2.6l.4 3.9c0 .1 0 .1.1.1h.2l.1-.1.7-4.9v-.1h1.5c.1 0 .2 0 .2.1l-.9 6.1zm6.2-4.2c-.3-.2-.7-.3-1.2-.3h-.5c-.2 0-.3 0-.4.1-.1 0-.2.1-.3.2-.1.1-.1.2-.1.3v5c0 .1 0 .1-.1.1h-1.5c-.1 0-.1 0-.1-.1v-10c0-.1 0-.1.1-.1h1.5c.1 0 .1 0 .1.1v2.7h2.5c.3 0 .6.1.9.2.3.1.5.3.7.5s.4.4.5.7.2.5.2.8v5.2c0 .1 0 .1-.1.1h-1.6c-.1 0-.1 0-.1-.1v-4.4c0-.5-.2-.8-.5-1zm4.7 2.7c0 .1 0 .3.1.4l.3.3c.1.1.3.2.5.2.2.1.4.1.6.1h3.4c.1 0 .1 0 .1.1v1.5c0 .1 0 .1-.1.1h-2.4c-.8 0-1.5-.1-2-.2s-1-.3-1.3-.6-.6-.7-.7-1.1c-.1-.4-.2-1-.2-1.6 0-.8.1-1.4.4-1.9.2-.5.5-.9.9-1.2s.8-.5 1.3-.6.9-.2 1.4-.2c.6 0 1.1.1 1.5.2.4.1.8.3 1.1.6s.5.6.6.9c.1.4.2.8.2 1.2v1.5c0 .1 0 .1-.1.1h-5.3c-.3 0-.3.1-.3.2zm3.8-1.8c.1 0 .1 0 .1-.1 0-.4-.2-.7-.5-.9s-.8-.3-1.4-.3c-.2 0-.4 0-.6.1l-.7.2c-.2.1-.4.2-.5.4-.1.1-.2.3-.2.5 0 .1 0 .1.1.1h3.7zm6.6-2.9c.1 0 .1 0 .1.1v1.5c0 .1 0 .1-.1.1h-1.4c-.1 0-.2 0-.2.1-.1 0-.1.1-.2.2s-.1.1-.1.2v5.2c0 .1 0 .1-.1.1h-1.6c-.1 0-.1 0-.1-.1v-5.5c0-.2.1-.5.2-.7.1-.2.2-.4.4-.6.2-.2.4-.3.6-.4.2-.1.5-.2.7-.2h1.8zm2.3 4.7c0 .1 0 .3.1.4l.3.3c.1.1.3.2.5.2.2.1.4.1.6.1h3.4c.1 0 .1 0 .1.1v1.5c0 .1 0 .1-.1.1h-2.4c-.8 0-1.5-.1-2-.2s-1-.3-1.3-.6-.6-.7-.7-1.1c-.1-.4-.2-1-.2-1.6 0-.8.1-1.4.4-1.9.2-.5.5-.9.9-1.2s.8-.5 1.3-.6.9-.2 1.4-.2c.6 0 1.1.1 1.5.2.4.1.8.3 1.1.6s.5.6.6.9c.1.4.2.8.2 1.2v1.5c0 .1 0 .1-.1.1h-5.4c-.1 0-.2.1-.2.2zm3.9-1.8c.1 0 .1 0 .1-.1 0-.4-.2-.7-.5-.9s-.8-.3-1.4-.3c-.2 0-.4 0-.6.1l-.7.2c-.2.1-.4.2-.5.4-.1.1-.2.3-.2.5 0 .1 0 .1.1.1h3.7z"/></svg>